<svg width="800" height="600" viewBox="0 0 800 600" fill="none" xmlns="http://www.w3.org/2000/svg">
  <rect width="800" height="600" fill="#0ea5e9"/>
  <rect x="50" y="50" width="700" height="500" fill="white" rx="20"/>
  <rect x="100" y="100" width="600" height="80" fill="#f3f4f6" rx="10"/>
  <rect x="120" y="120" width="200" height="40" fill="#0ea5e9" rx="5"/>
  <rect x="350" y="120" width="100" height="40" fill="#e5e7eb" rx="5"/>
  <rect x="480" y="120" width="100" height="40" fill="#e5e7eb" rx="5"/>
  <rect x="600" y="120" width="80" height="40" fill="#e5e7eb" rx="5"/>

  <rect x="100" y="220" width="180" height="200" fill="#f9fafb" rx="10"/>
  <rect x="120" y="240" width="140" height="120" fill="#e5e7eb" rx="5"/>
  <rect x="120" y="380" width="100" height="20" fill="#0ea5e9" rx="3"/>
  <rect x="120" y="410" width="80" height="15" fill="#6b7280" rx="2"/>

  <rect x="300" y="220" width="180" height="200" fill="#f9fafb" rx="10"/>
  <rect x="320" y="240" width="140" height="120" fill="#e5e7eb" rx="5"/>
  <rect x="320" y="380" width="100" height="20" fill="#0ea5e9" rx="3"/>
  <rect x="320" y="410" width="80" height="15" fill="#6b7280" rx="2"/>

  <rect x="500" y="220" width="180" height="200" fill="#f9fafb" rx="10"/>
  <rect x="520" y="240" width="140" height="120" fill="#e5e7eb" rx="5"/>
  <rect x="520" y="380" width="100" height="20" fill="#0ea5e9" rx="3"/>
  <rect x="520" y="410" width="80" height="15" fill="#6b7280" rx="2"/>

  <rect x="100" y="450" width="600" height="80" fill="#f3f4f6" rx="10"/>
  <rect x="120" y="470" width="100" height="40" fill="#0ea5e9" rx="5"/>
  <rect x="240" y="470" width="100" height="40" fill="#e5e7eb" rx="5"/>
  <rect x="360" y="470" width="100" height="40" fill="#e5e7eb" rx="5"/>
  <rect x="480" y="470" width="100" height="40" fill="#e5e7eb" rx="5"/>
  <rect x="600" y="470" width="80" height="40" fill="#e5e7eb" rx="5"/>

  <text x="400" y="40" text-anchor="middle" fill="white" font-family="Arial, sans-serif" font-size="24" font-weight="bold">E-commerce Platform</text>
</svg>
