<svg width="800" height="600" viewBox="0 0 800 600" fill="none" xmlns="http://www.w3.org/2000/svg">
  <rect width="800" height="600" fill="#10b981"/>
  <rect x="50" y="50" width="700" height="500" fill="white" rx="20"/>

  <!-- Header -->
  <rect x="100" y="80" width="600" height="60" fill="#f3f4f6" rx="10"/>
  <rect x="120" y="100" width="200" height="20" fill="#10b981" rx="5"/>
  <rect x="350" y="100" width="100" height="20" fill="#e5e7eb" rx="5"/>
  <rect x="480" y="100" width="100" height="20" fill="#e5e7eb" rx="5"/>
  <rect x="600" y="100" width="80" height="20" fill="#e5e7eb" rx="5"/>

  <!-- Task Lists -->
  <rect x="100" y="180" width="200" height="300" fill="#f9fafb" rx="10"/>
  <rect x="120" y="200" width="160" height="30" fill="#10b981" rx="5"/>
  <rect x="120" y="250" width="160" height="20" fill="#e5e7eb" rx="3"/>
  <rect x="120" y="280" width="160" height="20" fill="#e5e7eb" rx="3"/>
  <rect x="120" y="310" width="160" height="20" fill="#e5e7eb" rx="3"/>
  <rect x="120" y="340" width="160" height="20" fill="#e5e7eb" rx="3"/>
  <rect x="120" y="370" width="160" height="20" fill="#e5e7eb" rx="3"/>
  <rect x="120" y="400" width="160" height="20" fill="#e5e7eb" rx="3"/>

  <rect x="320" y="180" width="200" height="300" fill="#f9fafb" rx="10"/>
  <rect x="340" y="200" width="160" height="30" fill="#f59e0b" rx="5"/>
  <rect x="340" y="250" width="160" height="20" fill="#e5e7eb" rx="3"/>
  <rect x="340" y="280" width="160" height="20" fill="#e5e7eb" rx="3"/>
  <rect x="340" y="310" width="160" height="20" fill="#e5e7eb" rx="3"/>
  <rect x="340" y="340" width="160" height="20" fill="#e5e7eb" rx="3"/>
  <rect x="340" y="370" width="160" height="20" fill="#e5e7eb" rx="3"/>
  <rect x="340" y="400" width="160" height="20" fill="#e5e7eb" rx="3"/>

  <rect x="540" y="180" width="200" height="300" fill="#f9fafb" rx="10"/>
  <rect x="560" y="200" width="160" height="30" fill="#ef4444" rx="5"/>
  <rect x="560" y="250" width="160" height="20" fill="#e5e7eb" rx="3"/>
  <rect x="560" y="280" width="160" height="20" fill="#e5e7eb" rx="3"/>
  <rect x="560" y="310" width="160" height="20" fill="#e5e7eb" rx="3"/>
  <rect x="560" y="340" width="160" height="20" fill="#e5e7eb" rx="3"/>
  <rect x="560" y="370" width="160" height="20" fill="#e5e7eb" rx="3"/>
  <rect x="560" y="400" width="160" height="20" fill="#e5e7eb" rx="3"/>

  <!-- Add Task Button -->
  <rect x="100" y="500" width="600" height="40" fill="#f3f4f6" rx="10"/>
  <rect x="120" y="510" width="200" height="20" fill="#10b981" rx="5"/>
  <rect x="340" y="510" width="200" height="20" fill="#e5e7eb" rx="5"/>
  <rect x="560" y="510" width="120" height="20" fill="#e5e7eb" rx="5"/>

  <text x="400" y="40" text-anchor="middle" fill="white" font-family="Arial, sans-serif" font-size="24" font-weight="bold">Task Management App</text>
</svg>
